<svg xmlns="http://www.w3.org/2000/svg" viewBox="0 0 64 64" fill="none">
  <defs>
    <linearGradient id="frame" x1="0%" y1="0%" x2="0%" y2="100%">
      <stop offset="0%" stop-color="#e8eaec"/>
      <stop offset="40%" stop-color="#cfd3d8"/>
      <stop offset="100%" stop-color="#aeb4bc"/>
    </linearGradient>
    <radialGradient id="cd" cx="35%" cy="35%" r="65%">
      <stop offset="0%" stop-color="#f8fafc"/>
      <stop offset="25%" stop-color="#c0c8d4"/>
      <stop offset="50%" stop-color="#7dd3c0"/>
      <stop offset="62%" stop-color="#d8b4e8"/>
      <stop offset="75%" stop-color="#a8b8e8"/>
      <stop offset="100%" stop-color="#8a9098"/>
    </radialGradient>
    <linearGradient id="shine" x1="0%" y1="0%" x2="0%" y2="100%">
      <stop offset="0%" stop-color="#ffffff" stop-opacity="0.55"/>
      <stop offset="45%" stop-color="#ffffff" stop-opacity="0.08"/>
      <stop offset="100%" stop-color="#ffffff" stop-opacity="0"/>
    </linearGradient>
  </defs>
  <rect x="4" y="4" width="56" height="56" rx="14" fill="url(#frame)" stroke="#5a5f66" stroke-width="1.5"/>
  <rect x="6" y="6" width="52" height="52" rx="12" fill="none" stroke="#ffffff" stroke-opacity="0.85" stroke-width="1"/>
  <circle cx="32" cy="32" r="22" fill="url(#cd)" stroke="#6b7280" stroke-width="0.75"/>
  <ellipse cx="28" cy="24" rx="18" ry="14" fill="url(#shine)"/>
  <circle cx="32" cy="32" r="6" fill="#b8c0cc" stroke="#6b7280" stroke-width="0.5"/>
  <circle cx="32" cy="32" r="2.2" fill="#4b5563"/>
  <path fill="#0a0a0a" d="M40 18c.5 0 1 .4 1 .9v22.5c0 .8-.7 1.4-1.5 1.3-2.8-.3-5 2.2-4.2 4.9.6 2 2.8 3.2 5 2.7 2.3-.6 3.8-2.8 3.4-5.1l-.1-16.2h-4.4v-4h5.4c.5 0 .9-.4.9-.9v-5.2c0-.5.4-.9 1-.9z"/>
  <ellipse cx="37" cy="21" rx="2.5" ry="1.2" fill="#ffffff" fill-opacity="0.35"/>
</svg>
